# xmcd
#
# Track frame offsets:
#	150
#	13308
#	26524
#	43009
#	58637
#	69609
#	90202
#	104005
#	114686
#	124821
#
# Disc length: 1854 seconds
#
# Revision: 0
# Processed by: cddbd v1.5.1PL0 Copyright (c) Steve Scherf et al.
# Submitted via: dBpowerAMP V4.0
#
DISCID=87073c0a
DTITLE=Buddy Lyles - Classics
DYEAR=2000
DGENRE=Gospel
TTITLE0=Hall of Fame
TTITLE1=Child of the King
TTITLE2=The Old Rugged Cross
TTITLE3=His Eye is on the Sparrow
TTITLE4=I Will Sing of My Redeemer
TTITLE5=Far Above the Starry Sky
TTITLE6=Peace in the Valley
TTITLE7=Living By Faith
TTITLE8=I Feel Like Traveling On
TTITLE9=Pa Pa, Read to Me
EXTD=
EXTT0=
EXTT1=
EXTT2=
EXTT3=
EXTT4=
EXTT5=
EXTT6=
EXTT7=
EXTT8=
EXTT9=
PLAYORDER=
